<svg t="1660551474345" class="icon" viewBox="0 0 1024 1024" version="1.1" xmlns="http://www.w3.org/2000/svg" p-id="3941" width="300" height="300"><path d="M266.513 213.522h490.974l-21.982-34.799h-437.828zM876.527 288.615h-115.849v-53.521h-502.852v53.521h-110.353c-37.702 0-68.267 30.564-68.267 68.267v412.638h-31.607c-17.459 0-31.607 14.763-31.607 32.973v32.973h991.983v-32.973c0-18.21-14.148-32.973-31.607-32.973h-31.607v-412.638c0-0.015 0-0.033 0-0.051 0-37.675-30.541-68.215-68.215-68.215-0.006 0-0.012 0-0.018 0zM804.642 340.839h68.693v68.693h-68.693v-68.693zM804.642 456.961h68.693v68.693h-68.693v-68.693zM804.642 573.116h68.693v68.693h-68.693v-68.693zM727.723 340.839h68.693v68.693h-68.693v-68.693zM727.723 456.961h68.693v68.693h-68.693v-68.693zM727.723 573.116h68.693v68.693h-68.693v-68.693zM555.503 340.839h68.676v68.693h-68.676v-68.693zM555.503 456.961h68.676v68.693h-68.676v-68.693zM555.503 573.116h68.676v68.693h-68.676v-68.693zM475.358 340.839h68.693v68.693h-68.693v-68.693zM475.358 456.961h68.693v68.693h-68.693v-68.693zM475.358 573.116h68.693v68.693h-68.693v-68.693zM395.23 340.839h68.693v68.693h-68.693v-68.693zM395.23 456.961h68.693v68.693h-68.693v-68.693zM395.23 573.116h68.693v68.693h-68.693v-68.693zM228.966 340.839h68.693v68.693h-68.693v-68.693zM228.966 456.961h68.693v68.693h-68.693v-68.693zM228.966 573.116h68.693v68.693h-68.693v-68.693zM152.030 340.839h68.693v68.693h-68.693v-68.693zM152.030 456.961h68.693v68.693h-68.693v-68.693zM152.030 573.116h68.693v68.693h-68.693v-68.693z" p-id="3942"></path></svg>