<svg t="1660554054201" class="icon" viewBox="0 0 1024 1024" version="1.1" xmlns="http://www.w3.org/2000/svg" p-id="4060" width="300" height="300"><path d="M650.8544 231.87456H324.44416c-18.0224 0-32.64512 14.45888-32.64512 32.27648s14.62272 32.27648 32.64512 32.27648h326.41024c18.0224 0 32.64512-14.45888 32.64512-32.27648s-14.62272-32.27648-32.64512-32.27648zM650.8544 382.40256H324.44416c-18.0224 0-32.64512 14.45888-32.64512 32.27648s14.62272 32.23552 32.64512 32.23552h326.41024c18.0224 0 32.64512-14.45888 32.64512-32.23552 0-17.8176-14.62272-32.27648-32.64512-32.27648zM476.7744 532.93056H324.44416c-18.0224 0-32.64512 14.45888-32.64512 32.27648s14.62272 32.27648 32.64512 32.27648h152.33024c18.0224 0 32.64512-14.45888 32.64512-32.27648s-14.62272-32.27648-32.64512-32.27648z" p-id="4061"></path><path d="M835.82976 113.62304c0-17.8176-14.62272-32.27648-32.64512-32.27648H172.15488c-18.0224 0-32.64512 14.45888-32.64512 32.27648v795.648c0 17.8176 14.62272 32.27648 32.64512 32.27648h303.75936c17.28512 0 32.44032-13.02528 33.46432-30.26944 1.10592-18.71872-13.7216-34.24256-32.19456-34.24256H226.54976l-2.53952-0.16384c-10.97728-1.26976-19.21024-10.4448-19.21024-21.34016v-688.128l0.16384-2.49856c1.31072-10.81344 10.56768-19.00544 21.58592-19.00544h522.24c5.77536 0 11.30496 2.2528 15.40096 6.30784 4.096 4.01408 6.38976 9.50272 6.38976 15.19616v281.23136c0 0.08192 0.08192 0.16384 0.16384 0.16384h64.9216c0.08192 0 0.16384-0.08192 0.16384-0.16384V113.62304z" p-id="4062"></path><path d="M803.18464 480.4608c-17.94048 0-32.64512-14.70464-32.64512-32.64512V368.06656c0-17.94048 14.70464-32.64512 32.64512-32.64512s32.64512 14.70464 32.64512 32.64512v79.74912c0 17.94048-14.70464 32.64512-32.64512 32.64512zM871.54688 645.61152L642.6624 874.496a31.694848 31.694848 0 0 1-44.81024 0 31.694848 31.694848 0 0 1 0-44.81024l228.88448-228.88448a31.694848 31.694848 0 0 1 44.81024 0 31.62112 31.62112 0 0 1 0 44.81024z" p-id="4063"></path><path d="M594.7392 874.496l-99.328-99.328a31.694848 31.694848 0 0 1 0-44.81024 31.694848 31.694848 0 0 1 44.81024 0l99.328 99.328a31.694848 31.694848 0 0 1 0 44.81024 31.694848 31.694848 0 0 1-44.81024 0z" p-id="4064"></path></svg>