<svg t="1660715315686" class="icon" viewBox="0 0 1024 1024" version="1.1" xmlns="http://www.w3.org/2000/svg" p-id="4199" width="300" height="300"><path d="M945.7 843L612 202.4c-45-77.9-157.5-77.9-202.5 0L75.9 843c-30.8 53.3 7.7 120 69.3 120h731.3c61.5 0 100-66.7 69.2-120z m-433.8-4c-31.4 0.6-56.9-24.6-56.3-55.5 0.5-29.1 24.7-52.9 54.2-53.5 31.4-0.6 56.9 24.6 56.3 55.5-0.5 29.2-24.7 53-54.2 53.5z m27.4-149.5h-57.1c-9.8 0-18.1-7.1-19.7-16.7l-36.2-188.3c-2.7-16.4 4.7-33.1 19.2-41.3 5.8-3.3 12.6-5.2 19.7-5.2h91c7.2 0 13.9 1.9 19.7 5.2 14.4 8.2 21.9 24.9 19.2 41.3l-36.2 188.3c-1.4 9.6-9.8 16.7-19.6 16.7z" p-id="4200"></path></svg>