<svg t="1660118624376" class="icon" viewBox="0 0 1024 1024" version="1.1" xmlns="http://www.w3.org/2000/svg" p-id="2776" width="300" height="300"><path d="M905.98259469 959.57563156H118.01740531a4.49233313 4.49233313 0 0 1-4.4426025-3.81268125L32.04973062 417.71073312a4.49233313 4.49233313 0 0 1 4.44260251-5.171985h951.01533375c2.75176125 0 4.85702437 2.4533775 4.4426025 5.171985l-81.52507219 538.05221719a4.49233313 4.49233313 0 0 1-4.4426025 3.81268125z" fill="#ffca28" p-id="2777"></path><path d="M927.15126406 412.53874813V160.03978437a12.73104 12.73104 0 0 0-12.73104-12.73104H403.90219625a12.6647325 12.6647325 0 0 1-10.90758375-6.18317437l-42.32076281-70.53460406a12.76419375 12.76419375 0 0 0-10.90758375-6.18317438H111.03854094A12.76419375 12.76419375 0 0 0 98.30750094 77.15540844v335.38333969h828.84376312z" fill="#B5885B" p-id="2778"></path><path d="M148.03812687 346.23124719h729.38251126v66.30750093H148.03812687z" fill="#FFFFFF" p-id="2779"></path><path d="M164.61500188 296.50062125h696.22876124v49.73062594H164.61500188z" fill="#E7ECED" p-id="2780"></path><path d="M181.19187687 246.76999625h663.07501126v49.730625H181.19187687z" fill="#C7CAC7" p-id="2781"></path><path d="M71.45296344 677.76875281l13.34438437 88.07293782 88.07293781-88.07293782z" fill="#424A60" p-id="2782"></path><path d="M219.74968906 677.76875281H172.87028563l-88.07293782 88.07293782 6.1665975 40.71280593 9.10070438 60.04144219 188.84376281-188.82718594z" fill="#EFCE4A" p-id="2783"></path><path d="M335.78781594 677.76875281h-46.87940344L100.06464969 866.59593875l1.5250725 10.09531687h121.01118937l198.92250281-198.92250281z" fill="#424A60" p-id="2784"></path><path d="M468.40281781 677.76875281h-46.87940344l-198.92250281 198.92250282h132.61500188l198.92250375-198.92250282z" fill="#EFCE4A" p-id="2785"></path><path d="M601.01781969 677.76875281h-46.8794025l-198.92250375 198.92250282h132.61500281l198.92250281-198.92250282z" fill="#424A60" p-id="2786"></path><path d="M733.6328225 677.76875281h-46.87940344l-198.92250281 198.92250282h132.61500188l198.92250281-198.92250282z" fill="#EFCE4A" p-id="2787"></path><path d="M866.24782437 677.76875281h-46.87940343l-198.92250282 198.92250282h132.61500188l198.92250281-198.92250282z" fill="#424A60" p-id="2788"></path><path d="M951.98342281 677.76875281l-198.92250281 198.92250282h169.33278094l21.881475-144.3348525 8.27186062-54.58765032z" fill="#EFCE4A" p-id="2789"></path></svg>