<svg t="1660118606986" class="icon" viewBox="0 0 1024 1024" version="1.1" xmlns="http://www.w3.org/2000/svg" p-id="2618" width="300" height="300"><path d="M949.90296219 951.64108063H74.09755719C50.59052938 951.64108063 32.00025969 932.41513531 32.00025969 909.34918906v-693.79459406c0-23.61081094 19.13513531-42.29189156 42.0972975-42.2918925h875.805405c23.50702688 0 42.0972975 19.22594625 42.0972975 42.2918925v693.79459406c0 23.61081094-19.13513531 42.29189156-42.0972975 42.29189156z" fill="#FFA000" p-id="2619"></path><path d="M512.00025969 354.88432438H32.00025969V137.84648656a42.27891937 42.27891937 0 0 1 42.0972975-42.42162187h328.56648562c18.59027063 0 34.98810844 12.11675719 40.44973031 30.2918925L512.00025969 354.8972975z" fill="#FFA000" p-id="2620"></path><path d="M884.8435025 899.74918906H139.15701594c-23.61081094 0-42.29189156-18.87567562-42.29189157-41.51351344v-565.62162187c0-23.1827025 19.21297313-41.51351344 42.29189157-41.51351344h745.68648656c23.61081094 0 42.29189156 18.87567562 42.2918925 41.51351344v565.62162187c0.53189156 22.63783781-18.68108062 41.51351344-42.2918925 41.51351344z" fill="#FFFFFF" p-id="2621"></path><path d="M949.90296219 951.64108063H74.09755719C50.59052938 951.64108063 32.00025969 932.75243281 32.00025969 910.08864875V370.49081094c0-23.20864875 19.13513531-41.55243281 42.0972975-41.55243282h875.805405c23.50702688 0 42.0972975 18.88864875 42.0972975 41.55243282v539.59783781c0 23.20864875-19.13513531 41.55243281-42.0972975 41.55243188z" fill="#FFCA28" p-id="2622"></path><path d="M373.68242188 487.35135125H131.96998906C120.04782687 487.35135125 109.8380975 478.27027063 109.8380975 466.5427025c0-11.22162188 9.65189156-20.834595 22.13189156-20.83459406h241.14162188c11.92216219 0 22.13189156 9.08108063 22.13189156 20.83459406 0 11.20864875-9.65189156 20.834595-21.56108062 20.834595z m0 139.96540594H131.96998906c-11.92216219 0-22.13189156-9.08108063-22.13189156-20.834595 0-11.75351344 9.65189156-20.834595 22.13189156-20.834595h241.14162188c11.92216219 0 22.13189156 9.08108063 22.13189156 20.834595 0 11.75351344-9.65189156 20.834595-21.56108062 20.834595z" fill="#FFF8E1" p-id="2623"></path></svg>