<svg t="1660463086301" class="icon" viewBox="0 0 1024 1024" version="1.1" xmlns="http://www.w3.org/2000/svg" p-id="2798" width="200" height="200"><path d="M564.806477 60.90757c245.381374-34.488912 443.863919 152.268926 443.407112 417.064589s-199.776831 507.436196-445.158205 541.925107-443.863919-152.268926-443.330978-417.064588S319.425103 95.168079 564.806477 60.90757z" fill="#3FA9F5" p-id="2799"></path><path d="M120.866423 569.790321c0.380672-5.405547 0.68521-10.811094 1.218151-16.140506 0-3.349916 0.761345-6.623698 1.142017-9.89748 0.532941-4.796471 0.989748-9.592942 1.674959-14.313279 0.456807-3.502185 1.142017-7.004371 1.674958-10.506556s1.37042-8.983867 2.207899-13.4758 1.446555-7.15664 2.2079-10.658825 1.751093-8.755463 2.74084-13.095128 1.751093-7.15664 2.664707-10.734959 2.055631-8.450925 3.273781-12.714455 2.131765-7.080505 3.121513-10.658825 2.436303-8.298656 3.806724-12.409918 2.436303-7.15664 3.654454-10.658824 2.740841-8.146388 4.26353-12.181515c0.761345-2.131765 1.598824-4.26353 2.436303-6.395294 1.903362-4.872606 3.806723-9.821346 5.862353-14.693952 1.065882-2.588572 2.207899-5.101009 3.273782-7.613446 1.903362-4.415799 3.882858-8.755463 5.862354-13.095128 1.218151-2.664706 2.436303-5.253278 3.730588-7.613446 2.055631-4.339664 4.187395-8.603194 6.395295-12.866724l3.806723-7.613447c3.273782-6.243026 6.623698-12.409917 10.125884-18.500674 3.502185-6.090757 7.15664-12.10538 10.887228-18.043868l3.273782-5.101009q4.568068-7.232774 9.364539-14.16101l2.740841-4.111261 4.035126-5.481681c4.491933-6.31916 9.136136-12.562186 13.856473-18.729078l5.481681-6.852102c4.872606-6.166892 9.89748-12.10538 15.226892-18.043868l3.806724-4.415798c6.31916-7.15664 12.942859-14.16101 19.642691-21.013112l5.101009-5.024875c5.329412-5.253278 10.658825-10.354287 16.140506-15.226892 2.740841-2.512437 5.405547-5.024875 8.222522-7.613447l4.644203-4.111261c4.644202-3.958992 9.364539-7.613446 14.16101-11.724707l2.131765-1.751093c5.481681-4.339664 11.039497-8.52706 16.597313-12.63832l4.644202-3.349917c3.958992-2.816975 7.613446-5.557816 12.029245-8.298656l7.613446-5.177144c3.654454-2.360168 7.613446-4.644202 11.115632-6.928236 2.588572-1.598824 5.177143-3.197647 7.613446-4.720337 3.882858-2.284034 7.613446-4.491933 11.724707-6.623698l7.613447-4.187395c4.339664-2.284034 8.755463-4.491933 13.171262-6.623699l6.547564-3.273781c6.166892-2.89311 12.409917-5.710085 18.729077-8.374791l4.644203-1.903362c5.024875-1.979496 9.973615-3.958992 15.226892-5.786219l5.78622-2.131765q8.603194-3.045379 17.130254-5.710085l2.664706-0.837479c6.547564-1.979496 13.171262-3.806723 19.871095-5.557816l5.557816-1.903361c5.101009-1.218151 10.202018-2.360168 15.226892-3.426051l5.862354-1.218152q10.278153-1.979496 20.556305-3.42605c6.166892-0.837479 12.333783-1.522689 18.500674-2.131765 1.903362 0 3.882858 0 5.786219-0.456807L601.807826 57.176982h24.7437q7.613446 0 15.226893 0.456806h2.74084c5.862354 0 11.724707 0.761345 17.510927 1.370421l5.024874 0.609076 12.333783 1.522689 6.166892 0.532941c3.882858 0.609076 7.613446 1.294286 11.496304 2.055631l5.786219 1.142016c4.339664 0.913614 8.603194 1.903362 12.866724 2.969245 1.294286 0 2.512437 0.532941 3.730589 0.913613 5.557816 1.446555 11.115632 2.969244 16.521178 4.644202l4.26353 1.446555 12.10538 4.111261 5.405547 2.055631c3.730589 1.37042 7.613446 2.816975 11.115631 4.415798l4.948741 2.055631c4.644202 2.055631 9.21227 4.111261 13.704203 6.31916l1.751093 0.837479c4.491933 2.207899 8.907732 4.491933 13.323531 6.852102L698.041787 44.843199q-6.547564-3.502185-13.247397-6.852102l-1.446554-0.68521c-4.568068-2.207899-9.136136-4.26353-13.704204-6.319161l-5.024874-2.05563c-3.654454-1.522689-7.613446-3.045379-11.039497-4.415799l-6.090758-2.207899q-5.938488-2.131765-12.105379-4.111261l-4.187396-1.370421c-5.481681-1.751093-10.963363-3.273782-16.521178-4.720336h-0.68521l-3.121513-0.685211c-4.26353-1.065882-8.52706-2.055631-12.866724-2.969244C596.402279 7.613446 594.194379 7.613446 592.519421 7.080505Q586.580933 5.938488 581.099252 5.024875l-6.014623-0.989748-12.409917-1.52269-5.024875-0.609075c-5.786219-0.609076-11.572438-1.065882-17.510926-1.370421h-2.588572c-5.024875 0-10.125884 0-15.226893-0.456807h-6.014622L504.12731 0h-6.47143l-12.714455 1.446555-5.786219 0.456807c-6.090757 0.609076-12.257649 1.294286-18.500675 2.131765s-13.704203 2.131765-20.48017 3.42605l-5.862354 1.218152c-5.101009 1.065882-10.278153 2.207899-15.226892 3.426051l-5.481682 1.294285c-6.623698 1.751093-13.247397 3.57832-19.871095 5.557816l-2.664706 0.837479c-5.710085 1.751093-11.420169 3.730589-17.05412 5.710085l-5.862353 2.131765c-5.024875 1.827227-9.973615 3.806723-15.226893 5.786219l-4.720336 1.903362c-5.862354 2.512437-11.724707 5.024875-17.434792 7.613446l-1.218152 0.609076-6.623698 3.273782c-4.415799 2.131765-8.755463 4.339664-13.095128 6.623698l-7.613446 4.187395c-3.882858 2.131765-7.613446 4.339664-11.724707 6.623699l-7.613447 4.720336-11.191766 7.15664-7.613446 5.177143c-1.674958 1.218151-3.502185 2.284034-5.177144 3.502186s-4.568068 3.197647-6.775967 4.796471l-4.644202 3.349916c-5.63395 4.111261-11.191766 8.298656-16.597313 12.638321l-2.207899 1.751093c-4.720337 3.806723-9.440673 7.613446-14.084876 11.800842l-4.720337 4.035126-4.720336 4.111261c-1.142017 1.065882-2.284034 2.284034-3.502186 3.349916-5.405547 5.024875-10.811094 10.125884-16.064371 15.226893l-5.177144 5.024875c-6.699833 6.852102-13.247397 13.856472-19.642691 21.089246l-0.913614 0.913613-2.816975 3.426051q-7.613446 8.907732-15.226893 18.043868l-5.405546 6.852102c-4.796471 6.166892-9.364539 12.409917-13.932607 18.729078l-2.740841 3.730588-1.218151 1.751093-2.816975 4.111261c-3.197647 4.644202-6.243026 9.364539-9.364539 14.16101-1.065882 1.674958-2.131765 3.426051-3.273782 5.101009-3.730589 5.938488-7.613446 11.953111-10.887228 18.043868-2.89311 5.024875-5.710085 10.125884-8.450926 15.226892l-1.751093 3.273782-3.806723 7.613447-6.395295 12.866724-3.654454 7.613446c-2.055631 4.339664-3.958992 8.679329-5.862353 13.095128-1.142017 2.588572-2.284034 5.101009-3.349917 7.613446-1.979496 4.872606-3.958992 9.821346-5.786219 14.693951l-2.512437 6.395295-0.532941 1.446555c-1.294286 3.57832-2.512437 7.15664-3.730589 10.734959s-2.512437 7.080505-3.654454 10.658825-2.740841 8.755463-4.26353 12.866724-2.207899 7.080505-3.197648 10.658825-2.131765 8.52706-3.273782 12.714456-1.827227 7.15664-2.664706 10.734959-1.522689 8.907732-2.436303 13.095127-1.522689 7.080505-2.207899 10.658825S23.185907 457.796526 22.424562 462.288459s-1.142017 7.004371-1.674958 10.506556c-0.68521 4.720337-1.142017 9.516808-1.674958 14.465548-0.380672 3.273782-0.837479 6.547564-1.142017 9.89748-0.532941 5.329412-0.837479 10.58269-1.142017 15.988237 0 2.740841-0.456807 5.481681-0.609076 8.222522C15.572461 529.51519 15.572461 537.737712 15.572461 545.960234c0 170.541197 81.920682 308.801382 206.095991 376.332651l104.075811 56.64404c-124.099175-67.531269-206.400529-205.56305-206.019857-376.332651 0-8.222522 0-16.445044 0.609076-24.591431 0.076134-2.740841 0.380672-5.481681 0.532941-8.222522z" fill="#3F59F5" p-id="2800"></path><path d="M775.698939 463.811148l-1.37042-0.68521-1.294286-0.532941a40.4274 40.4274 0 0 0-4.568068-1.674958h-2.284034a33.118491 33.118491 0 0 0-4.796471-0.761345h-2.207899a47.736308 47.736308 0 0 0-7.613447 0l-152.268926 21.393784L617.034718 490.534345l152.268926-21.393784a47.736308 47.736308 0 0 1 7.613447 0h2.207899a34.869584 34.869584 0 0 1 4.796471 0.761345l2.284034 0.532941a46.670426 46.670426 0 0 1 4.568068 1.674958l2.664706 1.218151zM527.652859 763.324126V599.254358L510.44647 589.813685V753.731183a41.569417 41.569417 0 0 0 20.708574 38.067232l17.358658 9.21227a41.569417 41.569417 0 0 1-20.860843-37.686559zM579.500428 279.26121l-1.37042-0.68521a8.755463 8.755463 0 0 0-1.294286-0.456807 32.813954 32.813954 0 0 0-4.568068-1.674958l-0.913613-0.456807h-1.142017a33.118491 33.118491 0 0 0-4.796472-0.761344h-2.207899a38.752442 38.752442 0 0 0-7.613446 0 37.382021 37.382021 0 0 0-5.938488 1.294286l-1.52269 0.456806a42.635299 42.635299 0 0 0-5.177143 1.979496h-0.380672a43.168241 43.168241 0 0 0-6.547564 3.806724 1.522689 1.522689 0 0 0-0.609076 0h-0.380672a53.294124 53.294124 0 0 0-4.720337 3.730588l-0.68521 0.68521-3.197648 3.197648-0.609075 0.68521-0.532942 0.609076c-1.065882 1.294286-2.131765 2.588572-3.121513 3.958992l-0.380672 0.532941a58.928074 58.928074 0 0 0-3.197647 5.177143v0.532942a3.197647 3.197647 0 0 1 0 0.761344 65.399504 65.399504 0 0 0-3.045379 6.623699 22.840339 22.840339 0 0 0-0.761344 2.436302l-0.685211 1.979496c0 0.913614-0.456807 1.827227-0.609075 2.816976a17.282523 17.282523 0 0 0-0.456807 1.903361c0 1.065882 0 2.055631-0.456807 3.121513v170.769601l-152.268926 21.317649a48.193115 48.193115 0 0 0-5.938488 1.294286l-1.522689 0.456807a43.092106 43.092106 0 0 0-5.177144 2.05563h-0.380672a47.203367 47.203367 0 0 0-6.547564 3.806724h-0.989748c-1.598824 1.142017-3.197647 2.436303-4.720337 3.730588l-0.68521 0.761345a41.417148 41.417148 0 0 0-3.121513 3.197647l-0.68521 0.609076-0.532941 0.68521c-1.065882 1.218151-2.055631 2.512437-3.045379 3.882858l-0.456806 0.532941c-1.142017 1.674958-2.207899 3.426051-3.197648 5.177144v0.609075a2.740841 2.740841 0 0 1 0 0.68521 52.685048 52.685048 0 0 0-2.969244 6.699833c0 0.837479-0.532941 1.674958-0.837479 2.512437a19.642691 19.642691 0 0 1-0.609076 1.979496c0 0.913614-0.456807 1.903362-0.609075 2.816976a17.282523 17.282523 0 0 0-0.456807 1.903361c0 1.142017 0 2.207899-0.456807 3.349917V566.744942a41.645551 41.645551 0 0 0 20.632439 38.067232L352.162922 616.68915a41.645551 41.645551 0 0 1-20.63244-38.067231V572.226624c0-1.142017 0-2.207899 0.456807-3.349917a18.576809 18.576809 0 0 1 0.456807-1.979496c0-0.913614 0-1.827227 0.609075-2.74084l0.685211-2.055631a16.216641 16.216641 0 0 1 0.837479-2.512437 52.685048 52.685048 0 0 1 2.969244-6.699833l0.68521-1.294286c0.989748-1.751093 2.055631-3.502185 3.197647-5.177143l0.532942-0.68521a38.067231 38.067231 0 0 1 3.045378-3.882858l1.142017-1.294286 3.197647-3.273782 0.989748-0.913613c1.522689-1.294286 3.121513-2.588572 4.720337-3.730589l0.989748-0.609076a43.168241 43.168241 0 0 1 6.547564-3.806723h0.456807a43.092106 43.092106 0 0 1 5.177143-2.05563l1.52269-0.456807a48.193115 48.193115 0 0 1 5.938488-1.294286l152.268926-21.393784V338.950629v-6.547564c0-1.065882 0-2.131765 0.456806-3.197647a15.226893 15.226893 0 0 1 0.380673-1.827227l0.68521-2.89311a19.642691 19.642691 0 0 0 0.609076-1.979496c0-0.837479 0.532941-1.674958 0.837479-2.588572a65.399504 65.399504 0 0 1 3.045378-6.623698l0.68521-1.294286a58.928074 58.928074 0 0 1 3.197648-5.177143l0.456807-0.68521c0.989748-1.37042 2.055631-2.664706 3.121513-3.958992l1.142017-1.294286 3.197647-3.197648 1.979496-0.761344a53.294124 53.294124 0 0 1 4.720337-3.730589 4.339664 4.339664 0 0 1 0.989748-0.609076 43.168241 43.168241 0 0 1 6.547564-3.806723h0.456806a42.635299 42.635299 0 0 1 5.177144-1.979496l1.522689-0.456807a37.382021 37.382021 0 0 1 5.938488-1.294286 38.752442 38.752442 0 0 1 7.613446 0h2.2079a34.869584 34.869584 0 0 1 4.796471 0.761345l2.284034 0.609076a31.90034 31.90034 0 0 1 4.491933 1.674958 29.540172 29.540172 0 0 1 2.740841 1.142017z" fill="#DDDDDD" p-id="2801"></path><path d="M573.105133 284.666757c24.591432-3.502185 44.462526 15.226893 44.386392 41.79782v164.069768l152.268926-21.393784c24.667566-3.426051 44.538661 15.226893 44.538661 41.873955A55.349755 55.349755 0 0 1 769.303644 565.374522l-152.268926 21.31765v164.145902a55.27362 55.27362 0 0 1-44.614795 54.283872c-24.591432 3.426051-44.462526-15.226893-44.462526-41.79782V599.254358l-152.268926 21.31765c-24.515297 3.502185-44.462526-15.226893-44.386392-41.79782a55.27362 55.27362 0 0 1 44.614795-54.360007l152.268926-21.393784V338.950629a55.197486 55.197486 0 0 1 44.919333-54.283872z" fill="#FFFFFF" p-id="2802"></path></svg>