<svg t="1658198840099" class="icon" viewBox="0 0 1024 1024" version="1.1" xmlns="http://www.w3.org/2000/svg" p-id="1349" width="300" height="300"><path d="M493.21528889 680.06115555c0-107.01937778 53.62346667-201.39804445 134.76977778-256.69404444 1.42222222-24.64426667 0.78506667-70.20088889-23.41546667-70.20088889 0 0-13.81262222 2.7648-8.28302222-16.57742222 2.7648-35.90826667 2.7648-69.06311111 0-102.20657778-2.7648-22.10702222 2.7648-85.64053333-41.43786667-93.92355555-16.57742222-2.75342222-33.15484445-2.75342222-49.72088889 0-19.34222222 0-38.67306667-41.43786667-66.29831111-41.43786667l-60.76871111 8.28302222c-27.62524445 0-24.86044445 8.28302222-38.67306667 11.04782223-13.81262222 0-30.39004445 2.7648-44.20266666 5.51822222-44.20266667 11.04782222-60.76871111 71.82791111-63.53351112 93.92355555-2.7648 19.33084445-2.7648 82.87573333-2.7648 116.0192 5.5296 19.34222222-11.04782222 19.34222222-11.04782222 19.34222223-27.62524445-2.7648-16.57742222 85.62915555-16.57742222 85.62915555 5.5296 19.34222222 0 30.39004445 41.43786667 46.96746667 13.81262222 35.90826667 38.67306667 63.53351111 69.06311111 82.87573333 0 0 2.7648 35.90826667 2.7648 60.78008889-2.7648-2.7648 13.81262222 63.53351111-113.2544 82.87573333-127.0784 19.34222222-151.93884445 60.76871111-176.79928889 82.87573333-24.86044445 24.86044445-22.09564445 129.83182222-22.09564445 129.83182223H612.352c-72.23751111-56.35413333-119.13671111-145.04391111-119.13671111-244.92942223z" p-id="1350"></path><path d="M794.53297778 459.81013333c-125.48551111 0-227.19146667 98.58844445-227.19146667 220.22826667 0 121.60568889 101.70595555 220.22826667 227.19146667 220.22826667S1021.72444445 801.65546667 1021.72444445 680.04977778c0-121.63982222-101.70595555-220.23964445-227.19146667-220.23964445z m69.14275555 276.65066667c-27.67075555-12.85688889-61.14417778-19.28533333-100.4544-19.28533333v63.32871111l-108.46435555-108.46435556 108.46435555-108.46435555v61.87235555c50.47182222 7.28177778 90.74915555 27.90968889 120.84337778 61.87235556 24.74666667 28.63786667 41.49475555 65.03537778 50.23288889 109.19253333-19.42186667-27.17013333-42.95111111-47.19502222-70.62186667-60.05191111z" p-id="1351"></path></svg>
