<svg t="1660811583049" class="icon" viewBox="0 0 1024 1024" version="1.1" xmlns="http://www.w3.org/2000/svg" p-id="1103" width="300" height="300"><path d="M834.1 303.9H446.3c-20.2 0-36.6-16.4-36.6-36.6s16.4-36.6 36.6-36.6h387.8c20.2 0 36.6 16.4 36.6 36.6s-16.4 36.6-36.6 36.6zM255.4 303.9h-61.9c-20.2 0-36.6-16.4-36.6-36.6s16.4-36.6 36.6-36.6h61.9c20.2 0 36.6 16.4 36.6 36.6s-16.4 36.6-36.6 36.6z" p-id="1104"></path><path d="M356.9 378c-61 0-110.7-49.7-110.7-110.7s49.7-110.7 110.7-110.7 110.7 49.7 110.7 110.7S417.9 378 356.9 378z m0-148.2c-20.7 0-37.5 16.8-37.5 37.5s16.8 37.5 37.5 37.5 37.5-16.8 37.5-37.5-16.8-37.5-37.5-37.5zM581.3 549.7H193.5c-20.2 0-36.6-16.4-36.6-36.6s16.4-36.6 36.6-36.6h387.8c20.2 0 36.6 16.4 36.6 36.6s-16.4 36.6-36.6 36.6zM834.1 549.7h-61.9c-20.2 0-36.6-16.4-36.6-36.6s16.4-36.6 36.6-36.6h61.9c20.2 0 36.6 16.4 36.6 36.6s-16.4 36.6-36.6 36.6z" p-id="1105"></path><path d="M670.7 623.8c-61 0-110.7-49.7-110.7-110.7s49.7-110.7 110.7-110.7S781.4 452 781.4 513.1s-49.6 110.7-110.7 110.7z m0-148.2c-20.7 0-37.5 16.8-37.5 37.5s16.8 37.5 37.5 37.5 37.5-16.8 37.5-37.5-16.8-37.5-37.5-37.5z" fill="#4195F9" p-id="1106"></path><path d="M834.1 796.6H446.3c-20.2 0-36.6-16.4-36.6-36.6s16.4-36.6 36.6-36.6h387.8c20.2 0 36.6 16.4 36.6 36.6s-16.4 36.6-36.6 36.6zM255.4 796.6h-61.9c-20.2 0-36.6-16.4-36.6-36.6s16.4-36.6 36.6-36.6h61.9c20.2 0 36.6 16.4 36.6 36.6s-16.4 36.6-36.6 36.6z" p-id="1107"></path><path d="M356.9 870.7c-61 0-110.7-49.7-110.7-110.7s49.7-110.7 110.7-110.7S467.6 698.9 467.6 760s-49.7 110.7-110.7 110.7z m0-148.2c-20.7 0-37.5 16.8-37.5 37.5s16.8 37.5 37.5 37.5 37.5-16.8 37.5-37.5-16.8-37.5-37.5-37.5z" p-id="1108"></path></svg>