<svg t="1658200026892" class="icon" viewBox="0 0 1024 1024" version="1.1" xmlns="http://www.w3.org/2000/svg" p-id="1502" width="300" height="300"><path d="M127.04 683.84c0-17.28 5.75999999-31.68 17.76-44.16 12-12 26.4-18.24 43.68-18.24000001L435.2 621.43999999c17.28 0 31.68 6.24000001 44.16 18.24000001 12 12 18.23999999 26.88 18.24000001 44.16L497.60000001 930.56c0 17.28-6.24000001 31.68-18.24000001 43.68C466.88 986.24 452 992 435.2 992L188 992c-17.28 0-31.68-5.75999999-43.68-17.76s-17.76-26.4-17.76-43.67999999l0-246.72000002z m493.44 0c0-17.28 5.75999999-31.68 17.76-44.16 12-12 26.4-18.24 43.68-18.24L929.6 621.44c17.28 0 31.68 6.24000001 43.68 18.24s17.76 26.88 17.76 44.16L991.04 930.56c0 17.28-5.75999999 31.68-17.75999999 43.68S946.88 992 929.6 992L681.92 992c-17.28 0-31.68-5.75999999-43.68-17.76s-17.76-26.4-17.76-43.68l0-246.72z m0-494.88c0-17.28 5.75999999-31.68 17.76-43.68s26.4-17.76 43.68-17.76L929.6 127.52c17.28 0 31.68 5.75999999 43.68 17.76s17.76 26.4 17.76 43.68L991.04 435.68c0 17.28-5.75999999 31.68-17.76 44.16-12 12-26.4 18.24-43.68 18.24L681.92 498.08c-17.28 0-31.68-6.24000001-43.68-18.24s-17.76-26.88-17.76-44.16l0-246.72z m-384.96-137.28c12.96-12.96 28.8-19.68 46.56-19.68 17.76 0 33.12 6.72 45.6 19.68L511.52 235.52c12.96 12.96 19.68 28.32000001 19.67999999 46.08 0 17.28-6.72 32.64-19.67999999 46.08L327.68 511.52c-12.48 12.48-27.84 18.72-45.6 18.72s-33.12-6.24-46.56-18.72L51.68 327.68C39.2 314.72 32.96 299.36 32.96 281.6c0-17.28 6.24-32.64 18.72-46.08l183.84-183.84z" fill="" p-id="1503"></path></svg>
