<svg t="1660551665471" class="icon" viewBox="0 0 1024 1024" version="1.1" xmlns="http://www.w3.org/2000/svg" p-id="4716" width="300" height="300"><path d="M313.847018 348.213895A154.498246 154.498246 0 0 1 535.534035 563.379649l-3.233684 3.341474-139.731088 139.731088-40.654596-40.654597 139.749052-139.731088a97.010526 97.010526 0 0 0-134.377544-139.892772l-2.820491 2.694737-139.731088 139.731088c-79.979789 79.979789-79.979789 209.650526 0 289.630316 78.722246 78.740211 205.608421 79.961825 285.83972 3.700772l3.772631-3.700772 304.882527-304.864562c79.979789-79.979789 79.979789-209.650526 0-289.630315-78.722246-78.740211-205.608421-79.961825-285.83972-3.700772l-3.772631 3.700772-40.654597-40.654597c102.417965-102.43593 268.485614-102.43593 370.921544 0 101.106526 101.106526 102.4 264.192 3.952281 366.915368l-3.952281 4.006176-304.864561 304.882526c-102.43593 102.43593-268.503579 102.43593-370.939509 0-101.106526-101.106526-102.4-264.192-3.952281-366.915368l3.952281-4.006176 139.731088-139.749052z" p-id="4717"></path></svg>