<svg t="1658199807535" class="icon" viewBox="0 0 1024 1024" version="1.1" xmlns="http://www.w3.org/2000/svg" p-id="1412" width="300" height="300"><path d="M980.70376297 968.32474075H45.7234963c-20.02488889 0-36.16616297-16.14127408-36.16616297-36.16616297v-5.5826963c0-20.02488889 16.14127408-36.16616297 36.16616297-36.16616296h934.98026667c20.02488889 0 36.16616297 16.14127408 36.16616295 36.16616296v5.5826963c0 20.02488889-16.26263703 36.16616297-36.16616295 36.16616297z" p-id="1413"></path><path d="M925.60497778 892.47288889H589.79365925V189.17451852c0-22.45214815 21.72397037-38.59342222 43.20521483-32.16118519L901.57511111 237.59834075c14.19946667 4.2477037 23.9085037 17.3549037 23.90850371 32.16118517v622.71336297zM791.25617778 748.41505185h-67.11371853c-9.22358518 0-16.74808889 7.5245037-16.74808888 16.7480889V832.39822222c0 9.22358518 7.5245037 16.74808889 16.74808888 16.74808889h67.11371853c9.22358518 0 16.74808889-7.5245037 16.74808889-16.74808889v-67.11371852c0-9.34494815-7.5245037-16.86945185-16.74808889-16.86945185z m0-146.84918518h-67.11371853c-9.22358518 0-16.74808889 7.5245037-16.74808888 16.74808888v67.11371853c0 9.22358518 7.5245037 16.74808889 16.74808888 16.74808889h67.11371853c9.22358518 0 16.74808889-7.5245037 16.74808889-16.74808889v-67.11371853c0-9.34494815-7.5245037-16.74808889-16.74808889-16.74808888z m0-146.97054815h-67.11371853c-9.22358518 0-16.74808889 7.5245037-16.74808888 16.74808889v67.11371851c0 9.22358518 7.5245037 16.74808889 16.74808888 16.7480889h67.11371853c9.22358518 0 16.74808889-7.5245037 16.74808889-16.7480889v-67.11371851c0-9.22358518-7.5245037-16.74808889-16.74808889-16.74808889z m0-146.84918519h-67.11371853c-9.22358518 0-16.74808889 7.5245037-16.74808888 16.74808889v67.11371853c0 9.22358518 7.5245037 16.74808889 16.74808888 16.74808888h67.11371853c9.22358518 0 16.74808889-7.5245037 16.74808889-16.74808888v-67.11371853c0-9.22358518-7.5245037-16.74808889-16.74808889-16.74808889zM494.88782222 56.64616297l-369.3074963 113.59573333c-14.0781037 4.36906667-23.66577778 17.3549037-23.66577777 32.03982222v690.0698074h436.54257777V88.80734815c-0.12136297-22.69487408-21.9666963-38.83614815-43.5693037-32.16118518zM299.73617778 832.39822222c0 9.22358518-7.5245037 16.74808889-16.74808889 16.74808889H215.87437037c-9.22358518 0-16.74808889-7.5245037-16.74808889-16.74808889v-67.11371852c0-9.22358518 7.5245037-16.74808889 16.74808889-16.74808888h67.11371852c9.22358518 0 16.74808889 7.5245037 16.74808889 16.74808888V832.39822222z m0-146.97054814c0 9.22358518-7.5245037 16.74808889-16.74808889 16.74808889H215.87437037c-9.22358518 0-16.74808889-7.5245037-16.74808889-16.74808889v-67.11371853c0-9.22358518 7.5245037-16.74808889 16.74808889-16.74808888h67.11371852c9.22358518 0 16.74808889 7.5245037 16.74808889 16.74808888v67.11371853z m0-146.84918519c0 9.22358518-7.5245037 16.74808889-16.74808889 16.74808889H215.87437037c-9.22358518 0-16.74808889-7.5245037-16.74808889-16.74808889v-67.11371852c0-9.22358518 7.5245037-16.74808889 16.74808889-16.74808889h67.11371852c9.22358518 0 16.74808889 7.5245037 16.74808889 16.74808889v67.11371852z m0-146.97054814c0 9.22358518-7.5245037 16.74808889-16.74808889 16.74808888H215.87437037c-9.22358518 0-16.74808889-7.5245037-16.74808889-16.74808888v-67.11371853c0-9.22358518 7.5245037-16.74808889 16.74808889-16.74808889h67.11371852c9.22358518 0 16.74808889 7.5245037 16.74808889 16.74808889v67.11371853zM442.33765925 832.39822222c0 9.22358518-7.5245037 16.74808889-16.74808888 16.74808889h-67.11371852c-9.22358518 0-16.74808889-7.5245037-16.74808888-16.74808889v-67.11371852c0-9.22358518 7.5245037-16.74808889 16.74808888-16.74808888h67.11371852c9.22358518 0 16.74808889 7.5245037 16.74808888 16.74808888V832.39822222z m0-146.97054814c0 9.22358518-7.5245037 16.74808889-16.74808888 16.74808889h-67.11371852c-9.22358518 0-16.74808889-7.5245037-16.74808888-16.74808889v-67.11371853c0-9.22358518 7.5245037-16.74808889 16.74808888-16.74808888h67.11371852c9.22358518 0 16.74808889 7.5245037 16.74808888 16.74808888v67.11371853z m0-146.84918519c0 9.22358518-7.5245037 16.74808889-16.74808888 16.74808889h-67.11371852c-9.22358518 0-16.74808889-7.5245037-16.74808888-16.74808889v-67.11371852c0-9.22358518 7.5245037-16.74808889 16.74808888-16.74808889h67.11371852c9.22358518 0 16.74808889 7.5245037 16.74808888 16.74808889v67.11371852z m0-146.97054814c0 9.22358518-7.5245037 16.74808889-16.74808888 16.74808888h-67.11371852c-9.22358518 0-16.74808889-7.5245037-16.74808888-16.74808888v-67.11371853c0-9.22358518 7.5245037-16.74808889 16.74808888-16.74808889h67.11371852c9.22358518 0 16.74808889 7.5245037 16.74808888 16.74808889v67.11371853z m-114.3239111-141.99466667l63.95828148-110.80438519 63.95828148 110.80438519H328.01374815z" p-id="1414"></path></svg>
