<svg t="1660811023745" class="icon" viewBox="0 0 1024 1024" version="1.1" xmlns="http://www.w3.org/2000/svg" p-id="3936" width="300" height="300"><path d="M147.41333333 228.69333333h364.90666667s47.14666667-82.98666667 95.04-82.98666666h271.89333333c22.08 0 40.21333333 21.12 40.21333334 46.93333333l1.17333333 637.97333333c0 25.81333333-21.12 46.93333333-46.93333333 46.93333334h-726.4c-25.81333333 0-46.93333333-21.12-46.93333334-46.93333334V275.62666667c0.10666667-25.81333333 21.22666667-46.93333333 47.04-46.93333334z" fill="#694B4B" p-id="3937"></path><path d="M886.29333333 682.13333333l-733.86666666 40.85333334-23.68-433.49333334 733.97333333-63.25333333z" fill="#593F3F" p-id="3938"></path><path d="M894.72 682.45333333L224.21333333 720l-22.50666666-413.86666667 676.90666666-37.54666666z" fill="#593F3F" p-id="3939"></path><path d="M862.61333333 684.48L198.50666667 739.2l-23.36-408.96 664.96-59.62666667z" fill="#FFFFFF" p-id="3940"></path><path d="M827.62666667 728.64L156.37333333 765.86666667l-23.68-433.38666667 671.68-51.30666667z" fill="#F2F2F1" p-id="3941"></path><path d="M814.93333333 726.93333333l-660.26666666 38.72-23.57333334-433.38666666 660.05333334-42.77333334z" fill="#FFFFFF" p-id="3942"></path><path d="M920.74666667 419.30666667H508.90666667s-47.14666667-76.16-95.04-76.16H99.30666667c-22.08 0-41.49333333 17.38666667-41.49333334 38.4l42.66666667 457.81333333c0 21.01333333 21.12 38.18666667 46.93333333 38.18666667h730.66666667c25.81333333 0 46.93333333-17.17333333 46.93333333-38.18666667l42.66666667-381.86666667c0-21.01333333-21.12-38.18666667-46.93333333-38.18666666z" fill="#00B5FC" p-id="3943"></path></svg>